<svg xmlns="http://www.w3.org/2000/svg" xmlns:xlink="http://www.w3.org/1999/xlink" viewBox="0 0 128 128"><linearGradient id="a" gradientUnits="userSpaceOnUse" x1="29.044" y1="64" x2="99.249" y2="64"><stop offset=".082" stop-color="#4a8af4" stop-opacity="0"/><stop offset="1" stop-color="#4a8af4"/></linearGradient><circle cx="64.1" cy="64" r="35.1" fill="url(#a)"/><path d="M100 28.1c-9.6-9.6-22.3-14.9-35.9-14.9s-26.3 5.3-35.9 14.9l9.4 9.4c7.1-7.1 16.5-11 26.5-11s19.4 3.9 26.5 11c7.1 7.1 11 16.5 11 26.5s-3.9 19.4-11 26.5c-7.1 7.1-16.5 11-26.5 11-7.6 0-14.8-2.2-20.9-6.4l12.3-5.5L20.1 64l-4.4 43.5 14-6.3c9.4 8.7 21.6 13.5 34.5 13.5 13.5 0 26.3-5.3 35.9-14.9 9.6-9.6 14.9-22.3 14.9-35.9s-5.4-26.2-15-35.8z" fill="none" stroke="#000" stroke-width="10.177" stroke-miterlimit="10"/><defs><path id="b" d="M100 28.1c-9.6-9.6-22.3-14.9-35.9-14.9s-26.3 5.3-35.9 14.9l9.4 9.4c7.1-7.1 16.5-11 26.5-11s19.4 3.9 26.5 11c7.1 7.1 11 16.5 11 26.5s-3.9 19.4-11 26.5c-7.1 7.1-16.5 11-26.5 11-7.6 0-14.8-2.2-20.9-6.4l12.3-5.5L20.1 64l-4.4 43.5 14-6.3c9.4 8.7 21.6 13.5 34.5 13.5 13.5 0 26.3-5.3 35.9-14.9 9.6-9.6 14.9-22.3 14.9-35.9s-5.4-26.2-15-35.8z"/></defs><clipPath id="c"><use xlink:href="#b" overflow="visible"/></clipPath><path clip-path="url(#c)" fill="#009600" d="M120.8 120.6L63.3 64V7.4h57.5z"/><path clip-path="url(#c)" fill="#c80000" d="M64.1 7.4V64L7.5 120.6V7.4z"/><path clip-path="url(#c)" fill="#ffce45" d="M147 122.8L64.1 64l-82.8 58.8z"/><linearGradient id="d" gradientUnits="userSpaceOnUse" x1="64.424" y1="117.095" x2="63.869" y2="10.758"><stop offset="0" stop-color="#fff" stop-opacity="0"/><stop offset="1" stop-color="#fff" stop-opacity=".6"/></linearGradient><circle cx="64.1" cy="64" r="53.2" clip-path="url(#c)" fill="url(#d)"/></svg>